<svg id="Capa_1" data-name="Capa 1" xmlns="http://www.w3.org/2000/svg" viewBox="0 0 28 22"><path d="M18.48,3.65c2.34,0,4.69,0,7,0,1.33,0,1.78.66,1.28,1.9C25.9,7.76,25,10,24,12.12a1.53,1.53,0,0,1-1.14.74c-3.32.09-6.65.09-10,.12a1.35,1.35,0,0,1-1.53-1.21c-.42-2.13-.9-4.25-1.32-6.38-.25-1.27.13-1.73,1.44-1.74Zm-5.06,7.08c2.8,0,5.45,0,8.09,0a1.06,1.06,0,0,0,.82-.41C23,8.91,23.52,7.49,24.13,6H12.43Z"/><path d="M17.09,16.52c-1.84,0-3.68,0-5.51,0a3.36,3.36,0,0,1-3.58-3c-.59-2.7-1.21-5.4-1.75-8.12A1.61,1.61,0,0,0,4.31,3.89a8.52,8.52,0,0,1-2.42,0,1.21,1.21,0,0,1-.33-.15,1.18,1.18,0,0,1-.14-1.82,1.31,1.31,0,0,1,.9-.29,20.82,20.82,0,0,1,3.26.11c1.69.24,2.5,1.48,2.85,3.06.58,2.66,1.21,5.32,1.72,8,.27,1.45,1.09,1.49,2.81,1.46,3-.06,5-.06,7.76,0l2.37.07c.77,0,1.36.3,1.33,1.2s-.6,1-1.32,1C21.1,16.53,19.09,16.52,17.09,16.52Z"/><path d="M11.69,17.5a1.81,1.81,0,0,1,1.78,1.79,1.77,1.77,0,0,1-1.85,1.82,1.81,1.81,0,0,1-1.8-1.77A1.85,1.85,0,0,1,11.69,17.5Z"/><path d="M20.58,19.19a1.85,1.85,0,0,1,2-1.68,1.78,1.78,0,0,1,1.62,1.93,1.76,1.76,0,0,1-2,1.67A1.84,1.84,0,0,1,20.58,19.19Z"/></svg>