<svg id="Capa_1" data-name="Capa 1" xmlns="http://www.w3.org/2000/svg" viewBox="0 0 196 99"><defs><style>.cls-1{fill:#ff5400;}.cls-2{fill:#ff7140;}.cls-3{fill:#e14003;}.cls-4{fill:#ffffc3;}.cls-5{fill:#ff8e00;}.cls-6{fill:#fff;}.cls-7{fill:#3a1f93;}</style></defs><path class="cls-1" d="M59.11,12.59H59v75C81.68,87,100,68.7,100,49,100,28.89,82.32,12.59,59.11,12.59Z"/><ellipse class="cls-2" cx="79.5" cy="32.94" rx="9.01" ry="19.2" transform="translate(2.01 70.38) rotate(-48.3)"/><path class="cls-3" d="M64,44.64a1.23,1.23,0,1,1-1.23-1.22A1.23,1.23,0,0,1,64,44.64Z"/><path class="cls-3" d="M64,41a1.23,1.23,0,1,1-1.23-1.22A1.23,1.23,0,0,1,64,41Z"/><path class="cls-3" d="M64,37.42a1.23,1.23,0,1,1-1.23-1.22A1.23,1.23,0,0,1,64,37.42Z"/><path class="cls-3" d="M64,33.81a1.23,1.23,0,1,1-1.23-1.22A1.23,1.23,0,0,1,64,33.81Z"/><path class="cls-3" d="M64,30.2A1.23,1.23,0,1,1,62.78,29,1.23,1.23,0,0,1,64,30.2Z"/><path class="cls-3" d="M64,26.59a1.23,1.23,0,1,1-1.23-1.22A1.23,1.23,0,0,1,64,26.59Z"/><circle class="cls-3" cx="62.78" cy="22.98" r="1.23"/><path class="cls-3" d="M64,19.37a1.23,1.23,0,1,1-1.23-1.22A1.23,1.23,0,0,1,64,19.37Z"/><circle class="cls-3" cx="62.78" cy="15.76" r="1.23"/><path class="cls-3" d="M71.09,44.64a1.23,1.23,0,1,1-1.23-1.22A1.23,1.23,0,0,1,71.09,44.64Z"/><path class="cls-3" d="M71.09,41a1.23,1.23,0,1,1-1.23-1.22A1.23,1.23,0,0,1,71.09,41Z"/><path class="cls-3" d="M71.09,37.42a1.23,1.23,0,1,1-1.23-1.22A1.23,1.23,0,0,1,71.09,37.42Z"/><circle class="cls-3" cx="69.86" cy="33.81" r="1.23"/><path class="cls-3" d="M71.09,30.2A1.23,1.23,0,1,1,69.86,29,1.23,1.23,0,0,1,71.09,30.2Z"/><path class="cls-3" d="M71.09,26.59a1.23,1.23,0,1,1-1.23-1.22A1.23,1.23,0,0,1,71.09,26.59Z"/><circle class="cls-3" cx="69.86" cy="22.98" r="1.23"/><path class="cls-3" d="M71.09,19.37a1.23,1.23,0,1,1-1.23-1.22A1.23,1.23,0,0,1,71.09,19.37Z"/><circle class="cls-3" cx="69.86" cy="15.76" r="1.23"/><path class="cls-3" d="M67.6,42.92a1.23,1.23,0,1,1-1.23-1.22A1.23,1.23,0,0,1,67.6,42.92Z"/><path class="cls-3" d="M67.6,39.31a1.23,1.23,0,1,1-1.23-1.22A1.23,1.23,0,0,1,67.6,39.31Z"/><path class="cls-3" d="M67.6,35.7a1.23,1.23,0,1,1-1.23-1.22A1.23,1.23,0,0,1,67.6,35.7Z"/><path class="cls-3" d="M67.6,32.09a1.23,1.23,0,1,1-1.23-1.22A1.23,1.23,0,0,1,67.6,32.09Z"/><path class="cls-3" d="M67.6,28.48a1.23,1.23,0,1,1-1.23-1.22A1.23,1.23,0,0,1,67.6,28.48Z"/><path class="cls-3" d="M67.6,24.87a1.23,1.23,0,1,1-1.23-1.22A1.23,1.23,0,0,1,67.6,24.87Z"/><path class="cls-3" d="M67.6,21.26A1.23,1.23,0,1,1,66.37,20,1.23,1.23,0,0,1,67.6,21.26Z"/><circle class="cls-3" cx="66.37" cy="17.65" r="1.23"/><path class="cls-3" d="M74.6,42.92a1.23,1.23,0,1,1-1.23-1.22A1.23,1.23,0,0,1,74.6,42.92Z"/><path class="cls-3" d="M74.6,39.31a1.23,1.23,0,1,1-1.23-1.22A1.23,1.23,0,0,1,74.6,39.31Z"/><circle class="cls-3" cx="73.37" cy="35.7" r="1.23"/><path class="cls-3" d="M74.6,32.09a1.23,1.23,0,1,1-1.23-1.22A1.23,1.23,0,0,1,74.6,32.09Z"/><path class="cls-3" d="M74.6,28.48a1.23,1.23,0,1,1-1.23-1.22A1.23,1.23,0,0,1,74.6,28.48Z"/><circle class="cls-3" cx="73.37" cy="24.87" r="1.23"/><path class="cls-3" d="M74.6,21.26A1.23,1.23,0,1,1,73.37,20,1.23,1.23,0,0,1,74.6,21.26Z"/><circle class="cls-3" cx="73.37" cy="17.65" r="1.23"/><circle class="cls-3" cx="76.68" cy="44.64" r="1.23"/><path class="cls-3" d="M77.9,41a1.23,1.23,0,1,1-1.22-1.22A1.23,1.23,0,0,1,77.9,41Z"/><path class="cls-3" d="M77.9,37.42a1.23,1.23,0,1,1-1.22-1.22A1.23,1.23,0,0,1,77.9,37.42Z"/><circle class="cls-3" cx="76.68" cy="33.81" r="1.23"/><path class="cls-3" d="M77.9,30.2A1.23,1.23,0,1,1,76.68,29,1.23,1.23,0,0,1,77.9,30.2Z"/><circle class="cls-3" cx="76.68" cy="26.59" r="1.23"/><circle class="cls-3" cx="76.68" cy="22.98" r="1.23"/><path class="cls-3" d="M77.9,19.37a1.23,1.23,0,1,1-1.22-1.22A1.23,1.23,0,0,1,77.9,19.37Z"/><path class="cls-3" d="M81.41,42.92a1.23,1.23,0,1,1-1.23-1.22A1.23,1.23,0,0,1,81.41,42.92Z"/><path class="cls-3" d="M81.41,39.31a1.23,1.23,0,1,1-1.23-1.22A1.23,1.23,0,0,1,81.41,39.31Z"/><circle class="cls-3" cx="80.18" cy="35.7" r="1.23"/><path class="cls-3" d="M81.41,32.09a1.23,1.23,0,1,1-1.23-1.22A1.23,1.23,0,0,1,81.41,32.09Z"/><circle class="cls-3" cx="80.18" cy="28.48" r="1.23"/><circle class="cls-3" cx="80.18" cy="24.87" r="1.23"/><path class="cls-3" d="M81.41,21.26A1.23,1.23,0,1,1,80.18,20,1.23,1.23,0,0,1,81.41,21.26Z"/><circle class="cls-3" cx="83.49" cy="44.64" r="1.23"/><path class="cls-3" d="M84.72,41a1.23,1.23,0,1,1-1.23-1.22A1.23,1.23,0,0,1,84.72,41Z"/><path class="cls-3" d="M84.72,37.42a1.23,1.23,0,1,1-1.23-1.22A1.23,1.23,0,0,1,84.72,37.42Z"/><circle class="cls-3" cx="83.49" cy="33.81" r="1.23"/><path class="cls-3" d="M84.72,30.2A1.23,1.23,0,1,1,83.49,29,1.23,1.23,0,0,1,84.72,30.2Z"/><circle class="cls-3" cx="83.49" cy="26.59" r="1.23"/><path class="cls-3" d="M88.22,42.92A1.23,1.23,0,1,1,87,41.7,1.23,1.23,0,0,1,88.22,42.92Z"/><path class="cls-3" d="M88.22,39.31A1.23,1.23,0,1,1,87,38.09,1.23,1.23,0,0,1,88.22,39.31Z"/><circle class="cls-3" cx="87" cy="35.7" r="1.23"/><path class="cls-3" d="M88.22,32.09A1.23,1.23,0,1,1,87,30.87,1.23,1.23,0,0,1,88.22,32.09Z"/><circle class="cls-3" cx="87" cy="28.48" r="1.23"/><circle class="cls-3" cx="90.3" cy="44.64" r="1.23"/><path class="cls-3" d="M91.53,41a1.23,1.23,0,1,1-1.23-1.22A1.23,1.23,0,0,1,91.53,41Z"/><circle class="cls-3" cx="90.3" cy="37.42" r="1.23"/><path class="cls-3" d="M91.53,33.81a1.23,1.23,0,1,1-1.23-1.22A1.23,1.23,0,0,1,91.53,33.81Z"/><path class="cls-3" d="M91.53,30.2A1.23,1.23,0,1,1,90.3,29,1.23,1.23,0,0,1,91.53,30.2Z"/><path class="cls-3" d="M95,42.92a1.23,1.23,0,1,1-1.23-1.22A1.23,1.23,0,0,1,95,42.92Z"/><circle class="cls-3" cx="93.81" cy="39.31" r="1.23"/><path class="cls-3" d="M95,35.7a1.23,1.23,0,1,1-1.23-1.22A1.23,1.23,0,0,1,95,35.7Z"/><path class="cls-3" d="M98.34,44.64a1.23,1.23,0,1,1-1.23-1.22A1.23,1.23,0,0,1,98.34,44.64Z"/><path class="cls-3" d="M67.6,47.76a1.23,1.23,0,1,1-1.23-1.23A1.23,1.23,0,0,1,67.6,47.76Z"/><path class="cls-3" d="M74.6,47.76a1.23,1.23,0,1,1-1.23-1.23A1.23,1.23,0,0,1,74.6,47.76Z"/><path class="cls-3" d="M81.41,47.76a1.23,1.23,0,1,1-1.23-1.23A1.23,1.23,0,0,1,81.41,47.76Z"/><path class="cls-3" d="M88.22,47.76A1.23,1.23,0,1,1,87,46.53,1.23,1.23,0,0,1,88.22,47.76Z"/><path class="cls-3" d="M95,47.76a1.23,1.23,0,1,1-1.23-1.23A1.23,1.23,0,0,1,95,47.76Z"/><path class="cls-3" d="M64,79.1a1.23,1.23,0,1,1-1.23-1.23A1.23,1.23,0,0,1,64,79.1Z"/><circle class="cls-3" cx="62.78" cy="75.49" r="1.23"/><path class="cls-3" d="M64,71.88a1.23,1.23,0,1,1-1.23-1.23A1.23,1.23,0,0,1,64,71.88Z"/><path class="cls-3" d="M64,68.27A1.23,1.23,0,1,1,62.78,67,1.23,1.23,0,0,1,64,68.27Z"/><path class="cls-3" d="M64,64.66a1.23,1.23,0,1,1-1.23-1.23A1.23,1.23,0,0,1,64,64.66Z"/><path class="cls-3" d="M64,61.05a1.23,1.23,0,1,1-1.23-1.23A1.23,1.23,0,0,1,64,61.05Z"/><path class="cls-3" d="M64,57.44a1.23,1.23,0,1,1-1.23-1.23A1.23,1.23,0,0,1,64,57.44Z"/><path class="cls-3" d="M64,53.83a1.23,1.23,0,1,1-1.23-1.23A1.23,1.23,0,0,1,64,53.83Z"/><path class="cls-3" d="M64,50.22A1.23,1.23,0,1,1,62.78,49,1.23,1.23,0,0,1,64,50.22Z"/><path class="cls-3" d="M71.09,79.1a1.23,1.23,0,1,1-1.23-1.23A1.23,1.23,0,0,1,71.09,79.1Z"/><path class="cls-3" d="M71.09,75.49a1.23,1.23,0,1,1-1.23-1.23A1.23,1.23,0,0,1,71.09,75.49Z"/><path class="cls-3" d="M71.09,71.88a1.23,1.23,0,1,1-1.23-1.23A1.23,1.23,0,0,1,71.09,71.88Z"/><path class="cls-3" d="M71.09,68.27A1.23,1.23,0,1,1,69.86,67,1.23,1.23,0,0,1,71.09,68.27Z"/><path class="cls-3" d="M71.09,64.66a1.23,1.23,0,1,1-1.23-1.23A1.23,1.23,0,0,1,71.09,64.66Z"/><path class="cls-3" d="M71.09,61.05a1.23,1.23,0,1,1-1.23-1.23A1.23,1.23,0,0,1,71.09,61.05Z"/><path class="cls-3" d="M71.09,57.44a1.23,1.23,0,1,1-1.23-1.23A1.23,1.23,0,0,1,71.09,57.44Z"/><path class="cls-3" d="M71.09,53.83a1.23,1.23,0,1,1-1.23-1.23A1.23,1.23,0,0,1,71.09,53.83Z"/><path class="cls-3" d="M71.09,50.22A1.23,1.23,0,1,1,69.86,49,1.23,1.23,0,0,1,71.09,50.22Z"/><circle class="cls-3" cx="66.37" cy="77.38" r="1.23"/><path class="cls-3" d="M67.6,73.77a1.23,1.23,0,1,1-1.23-1.23A1.23,1.23,0,0,1,67.6,73.77Z"/><path class="cls-3" d="M67.6,70.16a1.23,1.23,0,1,1-1.23-1.23A1.23,1.23,0,0,1,67.6,70.16Z"/><path class="cls-3" d="M67.6,66.55a1.23,1.23,0,1,1-1.23-1.23A1.23,1.23,0,0,1,67.6,66.55Z"/><path class="cls-3" d="M67.6,62.94a1.23,1.23,0,1,1-1.23-1.23A1.23,1.23,0,0,1,67.6,62.94Z"/><path class="cls-3" d="M67.6,59.33a1.23,1.23,0,1,1-1.23-1.23A1.23,1.23,0,0,1,67.6,59.33Z"/><path class="cls-3" d="M67.6,55.72a1.23,1.23,0,1,1-1.23-1.23A1.23,1.23,0,0,1,67.6,55.72Z"/><path class="cls-3" d="M67.6,52.11a1.23,1.23,0,1,1-1.23-1.23A1.23,1.23,0,0,1,67.6,52.11Z"/><path class="cls-3" d="M74.6,77.38a1.23,1.23,0,1,1-1.23-1.23A1.23,1.23,0,0,1,74.6,77.38Z"/><path class="cls-3" d="M74.6,73.77a1.23,1.23,0,1,1-1.23-1.23A1.23,1.23,0,0,1,74.6,73.77Z"/><path class="cls-3" d="M74.6,70.16a1.23,1.23,0,1,1-1.23-1.23A1.23,1.23,0,0,1,74.6,70.16Z"/><path class="cls-3" d="M74.6,66.55a1.23,1.23,0,1,1-1.23-1.23A1.23,1.23,0,0,1,74.6,66.55Z"/><path class="cls-3" d="M74.6,62.94a1.23,1.23,0,1,1-1.23-1.23A1.23,1.23,0,0,1,74.6,62.94Z"/><path class="cls-3" d="M74.6,59.33a1.23,1.23,0,1,1-1.23-1.23A1.23,1.23,0,0,1,74.6,59.33Z"/><path class="cls-3" d="M74.6,55.72a1.23,1.23,0,1,1-1.23-1.23A1.23,1.23,0,0,1,74.6,55.72Z"/><path class="cls-3" d="M74.6,52.11a1.23,1.23,0,1,1-1.23-1.23A1.23,1.23,0,0,1,74.6,52.11Z"/><path class="cls-3" d="M77.9,79.1a1.23,1.23,0,1,1-1.22-1.23A1.23,1.23,0,0,1,77.9,79.1Z"/><path class="cls-3" d="M77.9,75.49a1.23,1.23,0,1,1-1.22-1.23A1.23,1.23,0,0,1,77.9,75.49Z"/><path class="cls-3" d="M77.9,71.88a1.23,1.23,0,1,1-1.22-1.23A1.23,1.23,0,0,1,77.9,71.88Z"/><path class="cls-3" d="M77.9,68.27A1.23,1.23,0,1,1,76.68,67,1.23,1.23,0,0,1,77.9,68.27Z"/><path class="cls-3" d="M77.9,64.66a1.23,1.23,0,1,1-1.22-1.23A1.23,1.23,0,0,1,77.9,64.66Z"/><path class="cls-3" d="M77.9,61.05a1.23,1.23,0,1,1-1.22-1.23A1.23,1.23,0,0,1,77.9,61.05Z"/><path class="cls-3" d="M77.9,57.44a1.23,1.23,0,1,1-1.22-1.23A1.23,1.23,0,0,1,77.9,57.44Z"/><path class="cls-3" d="M77.9,53.83a1.23,1.23,0,1,1-1.22-1.23A1.23,1.23,0,0,1,77.9,53.83Z"/><circle class="cls-3" cx="76.68" cy="50.22" r="1.23"/><path class="cls-3" d="M81.41,77.38a1.23,1.23,0,1,1-1.23-1.23A1.23,1.23,0,0,1,81.41,77.38Z"/><path class="cls-3" d="M81.41,73.77a1.23,1.23,0,1,1-1.23-1.23A1.23,1.23,0,0,1,81.41,73.77Z"/><path class="cls-3" d="M81.41,70.16a1.23,1.23,0,1,1-1.23-1.23A1.23,1.23,0,0,1,81.41,70.16Z"/><path class="cls-3" d="M81.41,66.55a1.23,1.23,0,1,1-1.23-1.23A1.23,1.23,0,0,1,81.41,66.55Z"/><path class="cls-3" d="M81.41,62.94a1.23,1.23,0,1,1-1.23-1.23A1.23,1.23,0,0,1,81.41,62.94Z"/><path class="cls-3" d="M81.41,59.33a1.23,1.23,0,1,1-1.23-1.23A1.23,1.23,0,0,1,81.41,59.33Z"/><path class="cls-3" d="M81.41,55.72a1.23,1.23,0,1,1-1.23-1.23A1.23,1.23,0,0,1,81.41,55.72Z"/><circle class="cls-3" cx="80.18" cy="52.11" r="1.23"/><path class="cls-3" d="M84.72,75.49a1.23,1.23,0,1,1-1.23-1.23A1.23,1.23,0,0,1,84.72,75.49Z"/><path class="cls-3" d="M84.72,71.88a1.23,1.23,0,1,1-1.23-1.23A1.23,1.23,0,0,1,84.72,71.88Z"/><path class="cls-3" d="M84.72,68.27A1.23,1.23,0,1,1,83.49,67,1.23,1.23,0,0,1,84.72,68.27Z"/><path class="cls-3" d="M84.72,64.66a1.23,1.23,0,1,1-1.23-1.23A1.23,1.23,0,0,1,84.72,64.66Z"/><path class="cls-3" d="M84.72,61.05a1.23,1.23,0,1,1-1.23-1.23A1.23,1.23,0,0,1,84.72,61.05Z"/><circle class="cls-3" cx="83.49" cy="57.44" r="1.23"/><path class="cls-3" d="M84.72,53.83a1.23,1.23,0,1,1-1.23-1.23A1.23,1.23,0,0,1,84.72,53.83Z"/><circle class="cls-3" cx="83.49" cy="50.22" r="1.23"/><path class="cls-3" d="M88.22,73.77A1.23,1.23,0,1,1,87,72.54,1.23,1.23,0,0,1,88.22,73.77Z"/><path class="cls-3" d="M88.22,70.16A1.23,1.23,0,1,1,87,68.93,1.23,1.23,0,0,1,88.22,70.16Z"/><path class="cls-3" d="M88.22,66.55A1.23,1.23,0,1,1,87,65.32,1.23,1.23,0,0,1,88.22,66.55Z"/><path class="cls-3" d="M88.22,62.94A1.23,1.23,0,1,1,87,61.71,1.23,1.23,0,0,1,88.22,62.94Z"/><circle class="cls-3" cx="87" cy="59.33" r="1.23"/><path class="cls-3" d="M88.22,55.72A1.23,1.23,0,1,1,87,54.49,1.23,1.23,0,0,1,88.22,55.72Z"/><circle class="cls-3" cx="87" cy="52.11" r="1.23"/><circle class="cls-3" cx="90.3" cy="68.27" r="1.23"/><path class="cls-3" d="M91.53,64.66a1.23,1.23,0,1,1-1.23-1.23A1.23,1.23,0,0,1,91.53,64.66Z"/><circle class="cls-3" cx="90.3" cy="61.05" r="1.23"/><circle class="cls-3" cx="90.3" cy="57.44" r="1.23"/><path class="cls-3" d="M91.53,53.83A1.23,1.23,0,1,1,90.3,52.6,1.23,1.23,0,0,1,91.53,53.83Z"/><circle class="cls-3" cx="90.3" cy="50.22" r="1.23"/><circle class="cls-3" cx="93.81" cy="62.94" r="1.23"/><circle class="cls-3" cx="93.81" cy="59.33" r="1.23"/><path class="cls-3" d="M95,55.72a1.23,1.23,0,1,1-1.23-1.23A1.23,1.23,0,0,1,95,55.72Z"/><circle class="cls-3" cx="93.81" cy="52.11" r="1.23"/><path class="cls-3" d="M98.34,57.44a1.23,1.23,0,1,1-1.23-1.23A1.23,1.23,0,0,1,98.34,57.44Z"/><path class="cls-3" d="M98.34,53.83a1.23,1.23,0,1,1-1.23-1.23A1.23,1.23,0,0,1,98.34,53.83Z"/><circle class="cls-3" cx="97.11" cy="50.22" r="1.23"/><circle class="cls-3" cx="66.37" cy="82.22" r="1.23"/><circle class="cls-3" cx="73.29" cy="81.73" r="1.23"/><circle class="cls-3" cx="62.78" cy="83.45" r="1.23"/><path class="cls-3" d="M71.09,83.45a1.23,1.23,0,1,1-1.23-1.23A1.23,1.23,0,0,1,71.09,83.45Z"/><path class="cls-4" d="M22.65,33s-12-11-2.95-24.92c0,0,9.12,2,13.58,9.93C33.28,18,25.48,22.15,22.65,33Z"/><path class="cls-5" d="M59.11,12.91A90,90,0,0,0,47,14S36,3.75,20.72,7.7c0,0,9.16,3.49,12.48,10.59,0,0-9.8,5.37-10.59,15.48,0,0-14.38,32.71,13.75,37.93,0,0,1.79-12.31,7.43-20.42,0,0,11.69-3,15.32-2.34Z"/><path class="cls-4" d="M19.61,40.09c-.09.24-5.32,3.22-9.14,7.59-3.62,4.15-5.72,9.52-4,13.17,1.28,2.77,8.08-1.8,8.08-1.8s-3.24,10.53,1.38,13.28,9.46-2.87,9.46-2.87-1.06,10.2,3.83,11.59A17,17,0,0,0,39,80.41a33.25,33.25,0,0,0,8.86,6s.67,4.82,2.87,5,2.34-2.87,2.34-2.87.74,3.51,3.44,3.4,2.58-4.89,2.58-4.89V58A10.78,10.78,0,0,1,52,56.6a36.21,36.21,0,0,1-7.54-6.51s-7.95,11.3-8.12,21.61c0,0-10.94-3.2-15-11.16S19.61,40.09,19.61,40.09Z"/><path class="cls-4" d="M32.88,28.4C18,28.4,19.8,43.85,35.57,46.16c7.27,1.06,13.81-2.66,13.27-6.91C48,33,40.93,28.4,32.88,28.4Z"/><path class="cls-6" d="M31.14,36.51,47,39.25s-4.74,5.18-9.48,4.32S31.14,36.51,31.14,36.51Z"/><path class="cls-7" d="M88.7,22.84A44.35,44.35,0,0,0,59,11.63h0s-8.15.13-11.61.65a39.44,39.44,0,0,0-5.11-3L39.22,8C33.86,5.86,26.59,4.32,19,6.68l-.38.12-.24.31a19.07,19.07,0,0,0-2.33,18.76l1.3,2.57a25.43,25.43,0,0,0,4.08,5.17,48.13,48.13,0,0,0-1.82,4.59,47.65,47.65,0,0,0-7.8,6.51L9.16,47.86c-2.52,3.31-4.51,7.27-4.64,11.59a3,3,0,0,0,1.41,2.9c1.74,1,4.67,0,6.94-1.06a26.83,26.83,0,0,0-.56,3.09c-.71,5.81,1.18,8.28,2.9,9.33a6.07,6.07,0,0,0,1.79.74,6.51,6.51,0,0,0,3,0,11.84,11.84,0,0,0,4.58-2.52c-.2,3.54.26,8.47,4,10.33a10,10,0,0,0,4.5.94,20.51,20.51,0,0,0,5.73-.92,17.22,17.22,0,0,0,8.31,5.14c.17,1.48.79,4.12,3.11,5a2.44,2.44,0,0,0,2.17-.22,3.27,3.27,0,0,0,.89-.89A4.25,4.25,0,0,0,56.89,93a4.47,4.47,0,0,0,.68,0c2.16-.34,2.56-3,2.6-4.74,22.8-.57,41.16-17.46,41.16-38.16C101.33,39.81,96.84,30.15,88.7,22.84ZM57.84,14.05v1.28l-.92,0-1.62.12c-1.06.07-2.11.25-3.11.39s-2,.38-2.87.6-1.76.47-2.53.74-1.47.53-2.08.78-1.13.5-1.56.71a13.4,13.4,0,0,0-1.31.74l5.33-.31c1.57-.1,3.4-.17,5.33-.27,1,0,2-.09,3-.09.78,0,1.56,0,2.35,0v2.14l-1,.11a17.18,17.18,0,0,0-2.09.36,17,17,0,0,0-3.54,1.23,13.09,13.09,0,0,0-1.32.72,9.53,9.53,0,0,0-1,.65,5.71,5.71,0,0,0-.77.67l1,0,2.55-.1,3.46-.15L57,24.25l.8,0V47.78a42.79,42.79,0,0,0-12.09,2.09c1.69-2.22,5.85-8.46,4-14-1.32-3.86-5.22-6.48-11.58-7.77s-10.28-.76-12.67.41a17.88,17.88,0,0,1,3.8-5.59C35,17.14,44.57,14.17,57.84,14.05ZM30.39,34.62a1.27,1.27,0,0,0-1.46,1.31,11.07,11.07,0,0,0,3.79,7.76.76.76,0,0,0-.16,0c-5.28-1.24-9-6.72-8.28-10.18.52-2.36,3.11-3.59,7.23-3.59a30.77,30.77,0,0,1,6.11.69c5.41,1.1,8.66,3.15,9.67,6.09a4.84,4.84,0,0,1,.14.51Zm13.9,5.12A6.76,6.76,0,0,1,39,42.51a6.58,6.58,0,0,1-.87-.06,5.36,5.36,0,0,1-4.62-4.33ZM43.65,13a38.91,38.91,0,0,0-9.93,3.54,23.17,23.17,0,0,0-9.54-8.29C32.33,7.33,39.84,10.77,43.65,13ZM20,9.35A21,21,0,0,1,31.51,17.8a25,25,0,0,0-4.07,3.31,19.62,19.62,0,0,0-5.33,9.47C13.5,21,18.33,11.84,20,9.35ZM16.54,71.53c-3.28-2-1.4-9.63-.4-12.39a1.3,1.3,0,0,0-.4-1.43,1.26,1.26,0,0,0-1.47-.09c-2.61,1.61-6.18,3-7.07,2.52-.11-.06-.14-.37-.13-.61C7.3,52,14.32,45.46,18.45,42.23,17,48,16.24,55.58,19.37,62a18.81,18.81,0,0,0,5.13,6.43C22.92,70.13,19.41,73.29,16.54,71.53Zm4.24-28a51.66,51.66,0,0,1,1.64-5.5A14.37,14.37,0,0,0,32,46.14c6.71,1.56,11.38-.1,14.27-2A24.26,24.26,0,0,1,43.15,49l-.1.14c-.35.54-6.7,9.94-7.57,19.86C21.77,65.33,20.22,52.36,20.78,43.57ZM29.71,80c-2.82-1.42-2.83-6.39-2.43-9.58a30.39,30.39,0,0,0,8.09,3.14,16.88,16.88,0,0,0,1,4.73A15.27,15.27,0,0,0,37.24,80C35.33,80.52,32,81.1,29.71,80ZM56.23,90.61c-1.48,0-1.64-1.75-1.64-3,0,0,.14-1.57-1.15-1.64s-1.25,1-1.31,1.25c-.28,1.36-.28,2.8-1.27,2.82-1.3,0-1.29-3.15-1.27-3.62a1.32,1.32,0,0,0-.94-1.24c-5.08-1.37-8.4-4-9.87-7.84-3.48-9.06,3.83-22.43,5.89-25.91C45.8,54,49,59,57.17,59.51v6.66c-8.74.63-11.34,6.45-11.34,6.45s3-3.31,12-3.52V87.63S58,90.57,56.23,90.61ZM98.94,48H74.42a30.65,30.65,0,0,1,12.7-23.33A34.71,34.71,0,0,1,98.94,48ZM60.15,14A42.23,42.23,0,0,1,85,22.83,33.26,33.26,0,0,0,71.67,48H60.15Zm0,71.95V50.52H71.68A33.65,33.65,0,0,0,86,76.46,42.3,42.3,0,0,1,60.15,85.91Zm28-11.32A31,31,0,0,1,74.42,50.52H99A34,34,0,0,1,88.16,74.59Z"/><path class="cls-7" d="M24.19,47a.92.92,0,0,0,0,.22c0,.14.06.34.11.59.1.52.27,1.24.5,2.1.11.42.25.88.4,1.36s.34,1,.49,1.49.4,1,.62,1.54.44,1.05.72,1.56l.39.76.42.74c.27.5.57,1,.87,1.41s.61.87.91,1.27a13.43,13.43,0,0,0,.87,1.11c.29.33.53.66.78.93s.47.49.65.69c.35.39.55.63.55.63s-.28-.12-.76-.36c-.24-.13-.53-.27-.86-.46s-.66-.45-1-.72l-.58-.44c-.19-.16-.37-.34-.57-.53a9.6,9.6,0,0,1-1.15-1.22,11.27,11.27,0,0,1-1.08-1.44l-.5-.79-.43-.83a15.15,15.15,0,0,1-.73-1.71c-.22-.57-.36-1.16-.52-1.72S24,52.1,24,51.57a11.61,11.61,0,0,1-.12-1.49A10.83,10.83,0,0,1,24,47.85a5.24,5.24,0,0,1,.14-.63A.79.79,0,0,1,24.19,47Z"/><path class="cls-7" d="M29.52,47.45a.62.62,0,0,0,0,.16l.16.4c.14.35.33.84.57,1.43l.82,2c.13.36.33.71.47,1.08s.33.73.52,1.09.35.73.55,1.07.35.71.56,1,.36.66.55,1,.35.59.53.84.33.5.47.72.28.39.39.54c.22.32.33.51.33.51s-.2-.08-.55-.25c-.17-.09-.38-.19-.62-.33s-.47-.32-.73-.53a5.8,5.8,0,0,1-.81-.71,6.92,6.92,0,0,1-.8-.89,11,11,0,0,1-1.39-2.21,11.71,11.71,0,0,1-.89-2.43,10.79,10.79,0,0,1-.35-2.22,7.75,7.75,0,0,1,.05-1.6,1.85,1.85,0,0,1,.09-.46A.51.51,0,0,1,29.52,47.45Z"/><path class="cls-7" d="M117.22,34.2V46.33h-4.64V34.2h-3.31V30.38h11.25V34.2Z"/><path class="cls-7" d="M126.81,30.38v16h-4.89V30.38Z"/><path class="cls-7" d="M143.37,37.39v8.94H141a10.29,10.29,0,0,0-.64-1.67,5.22,5.22,0,0,1-4.4,1.92,6.57,6.57,0,0,1-5.07-2.16,8.26,8.26,0,0,1-2-5.84,9.41,9.41,0,0,1,1.92-6,6.84,6.84,0,0,1,5.72-2.44,7,7,0,0,1,4.6,1.45,6.82,6.82,0,0,1,2.25,4.12l-4.74.46c-.24-1.66-1-2.49-2.19-2.49q-2.4,0-2.4,4.59c0,1.84.25,3.06.77,3.65a2.37,2.37,0,0,0,1.87.88,2.24,2.24,0,0,0,1.51-.54,1.87,1.87,0,0,0,.64-1.47h-2.64V37.39Z"/><path class="cls-7" d="M158,42.52v3.81H146V30.38h12v3.68h-7.2v2.31h5.82v3.54h-5.82v2.61Z"/><path class="cls-7" d="M174.1,46.33h-5.43l-2.33-6.1H164.8v6.1h-4.9V30.38h8.33a6.46,6.46,0,0,1,4.29,1.29A4.24,4.24,0,0,1,174,35.08a5,5,0,0,1-.56,2.43,4.71,4.71,0,0,1-2.26,1.87Zm-9.3-9.51h2.09a2.52,2.52,0,0,0,1.48-.39,1.28,1.28,0,0,0,.57-1.13q0-1.53-1.89-1.53H164.8Z"/><path class="cls-7" d="M174.77,41.71l4.54-.81a2.72,2.72,0,0,0,2.95,1.93c1.23,0,1.85-.33,1.85-1a.93.93,0,0,0-.43-.8,4.58,4.58,0,0,0-1.53-.51c-2.79-.53-4.59-1.23-5.38-2.1a4.33,4.33,0,0,1-1.2-3,4.79,4.79,0,0,1,1.72-3.75,7.24,7.24,0,0,1,4.92-1.5q4.88,0,6.44,3.92l-4.05,1.22a2.49,2.49,0,0,0-2.56-1.6c-1.07,0-1.6.33-1.6,1a.8.8,0,0,0,.36.69,4.36,4.36,0,0,0,1.4.46,30.64,30.64,0,0,1,4.07,1.07,4.51,4.51,0,0,1,2,1.6,4.44,4.44,0,0,1,.81,2.66,4.71,4.71,0,0,1-2,3.92A8.19,8.19,0,0,1,182,46.58Q176.14,46.58,174.77,41.71Z"/><path class="cls-7" d="M109,65.65l4.55-.82a2.69,2.69,0,0,0,2.94,1.93c1.23,0,1.85-.33,1.85-1a.9.9,0,0,0-.43-.8,4.59,4.59,0,0,0-1.52-.51q-4.2-.8-5.39-2.1a4.39,4.39,0,0,1-1.19-3,4.75,4.75,0,0,1,1.71-3.75,7.25,7.25,0,0,1,4.93-1.5c3.25,0,5.39,1.3,6.44,3.91l-4.06,1.23a2.47,2.47,0,0,0-2.56-1.6c-1.07,0-1.6.33-1.6,1a.78.78,0,0,0,.36.69,4.3,4.3,0,0,0,1.41.47,29.29,29.29,0,0,1,4.06,1.07,4.28,4.28,0,0,1,2,1.6,4.44,4.44,0,0,1,.81,2.66,4.7,4.7,0,0,1-2,3.92,8.28,8.28,0,0,1-5.16,1.5Q110.38,70.51,109,65.65Z"/><path class="cls-7" d="M130.17,64.47v5.8h-5v-16H132a10,10,0,0,1,3.88.59,4.69,4.69,0,0,1,2.1,1.79,4.85,4.85,0,0,1,.78,2.7,4.68,4.68,0,0,1-1.59,3.68,6.19,6.19,0,0,1-4.24,1.4Zm-.07-3.42h1.63c1.44,0,2.17-.53,2.17-1.59s-.67-1.5-2-1.5h-1.8Z"/><path class="cls-7" d="M147.49,70.51A7.23,7.23,0,0,1,142,68.28a8.33,8.33,0,0,1-2.12-6,8.69,8.69,0,0,1,2-5.91A7.87,7.87,0,0,1,153,56.27a8.12,8.12,0,0,1,2.1,5.86A8.6,8.6,0,0,1,153,68.22,7.08,7.08,0,0,1,147.49,70.51Zm0-3.62a1.85,1.85,0,0,0,1.78-1.08,9.9,9.9,0,0,0,.54-4q0-4.16-2.23-4.16-2.42,0-2.41,4.75Q145.15,66.9,147.47,66.89Z"/><path class="cls-7" d="M171.33,70.27H165.9l-2.33-6.1H162v6.1h-4.9v-16h8.34a6.45,6.45,0,0,1,4.28,1.3,4.22,4.22,0,0,1,1.52,3.4,5.08,5.08,0,0,1-.56,2.44,4.64,4.64,0,0,1-2.26,1.86ZM162,60.75h2.09a2.57,2.57,0,0,0,1.49-.38,1.3,1.3,0,0,0,.56-1.13c0-1-.63-1.54-1.89-1.54H162Z"/><path class="cls-7" d="M180.34,58.14V70.27H175.7V58.14h-3.3V54.31h11.25v3.83Z"/></svg>